# xmcd CD database file
#
# Track frame offsets:
#	150
#	17485
#	37155
#
# Disc length: 754 seconds
#
# Revision: 0
# Processed by: cddbd v1.5.2PL0 Copyright (c) Steve Scherf et al.
# Submitted via: CDex 1.51
#
DISCID=1c02f003
DTITLE=Clarke, Stanley and George Duke - Excerpts from 3
DYEAR=1990
DGENRE=Jazz
TTITLE0=Finger Prints
TTITLE1=Lady
TTITLE2=Pit Bulls (an endangered species)
EXTD=YEAR: 1990
EXTT0=
EXTT1=
EXTT2=
PLAYORDER=
